<svg width="24" height="24" viewBox="0 0 24 24" fill="none" xmlns="http://www.w3.org/2000/svg">
<path d="M19.8651 13.2436L18.4676 8.11722C18.058 6.61539 17.1677 5.29626 15.9383 4.3695C14.7089 3.44274 13.2109 2.96155 11.6825 3.0024C10.1541 3.04326 8.6829 3.60382 7.50283 4.59498C6.32276 5.58614 5.50151 6.95103 5.16963 8.47268L4.08763 13.4334C3.96812 13.9815 3.97088 14.55 4.09572 15.0969C4.22056 15.6438 4.46428 16.1551 4.8089 16.5932C5.15352 17.0312 5.59023 17.3847 6.08679 17.6276C6.58335 17.8705 7.12708 17.9966 7.67784 17.9966H8.49724C8.66606 18.8442 9.11711 19.6063 9.77397 20.1536C10.4308 20.701 11.2531 21 12.1014 21C12.9498 21 13.772 20.701 14.4289 20.1536C15.0857 19.6063 15.5368 18.8442 15.7056 17.9966H16.322C16.889 17.9966 17.4483 17.863 17.9562 17.6062C18.4642 17.3494 18.907 16.9763 19.2501 16.5162C19.5932 16.056 19.8273 15.5212 19.9341 14.9535C20.041 14.3858 20.0169 13.8006 19.8651 13.2436ZM12.1014 19.4964C11.6467 19.4945 11.2036 19.3494 10.8328 19.0809C10.4621 18.8124 10.1817 18.4337 10.0301 17.9966H14.1727C14.0211 18.4337 13.7408 18.8124 13.37 19.0809C12.9993 19.3494 12.5562 19.4945 12.1014 19.4964ZM18.0785 15.6081C17.8735 15.8853 17.608 16.11 17.3029 16.2643C16.9979 16.4185 16.6618 16.4981 16.3213 16.4968H7.67784C7.34742 16.4967 7.02124 16.421 6.72335 16.2752C6.42547 16.1294 6.1635 15.9173 5.95678 15.6545C5.75006 15.3917 5.60386 15.0849 5.52899 14.7568C5.45411 14.4287 5.45246 14.0877 5.52416 13.7588L6.60542 8.79739C6.86606 7.60218 7.5111 6.5301 8.438 5.75157C9.3649 4.97305 10.5205 4.53276 11.721 4.50069C12.9215 4.46863 14.0981 4.84663 15.0637 5.57461C16.0293 6.30259 16.7285 7.33877 17.0502 8.51842L18.4477 13.6448C18.5401 13.9788 18.5548 14.3302 18.4907 14.671C18.4266 15.0118 18.2855 15.3326 18.0785 15.6081Z" fill="#1D1D1D"/>
</svg>
