<?xml version="1.0" encoding="UTF-8"?>
<svg xmlns="http://www.w3.org/2000/svg" id="Layer_1" data-name="Layer 1" viewBox="0 0 64 64" width="512" height="512"><path d="M41,24a1,1,0,0,1-1-1V11a1,1,0,0,0-1-1H19a1,1,0,0,1,0-2H39a3,3,0,0,1,3,3V23A1,1,0,0,1,41,24Z"/><path d="M26,56H11a3,3,0,0,1-3-3V22a1,1,0,0,1,2,0V53a1,1,0,0,0,1,1H26a1,1,0,0,1,0,2Z"/><path d="M17,20H9a1,1,0,0,1-.707-1.707l10-10A1,1,0,0,1,20,9v8A3,3,0,0,1,17,20Zm-5.586-2H17a1,1,0,0,0,1-1V11.414Z"/><path d="M36,27H14a1,1,0,0,1,0-2H36a1,1,0,0,1,0,2Z"/><path d="M36,33H14a1,1,0,0,1,0-2H36a1,1,0,0,1,0,2Z"/><path d="M25,39H14a1,1,0,0,1,0-2H25a1,1,0,0,1,0,2Z"/><path d="M25,45H14a1,1,0,0,1,0-2H25a1,1,0,0,1,0,2Z"/><path d="M25,51H14a1,1,0,0,1,0-2H25a1,1,0,0,1,0,2Z"/><path d="M53,44a1,1,0,0,1,0-2,1,1,0,0,0,0-2H46a1,1,0,0,1-.707-1.707C45.3,38.287,47,36.4,47,31c0-5-1.383-5-2.048-5C44.156,26,43,27.558,43,30a11.353,11.353,0,0,1-1.1,4.447,12.2,12.2,0,0,1-6.547,6.491,1,1,0,0,1-.7-1.875h0a10.411,10.411,0,0,0,5.422-5.434A9.513,9.513,0,0,0,41,30c0-3.364,1.736-6,3.952-6C48.581,24,49,28,49,31a17.1,17.1,0,0,1-1.226,7H53a3,3,0,0,1,0,6Z"/><path d="M53,48a1,1,0,0,1,0-2,1,1,0,0,0,0-2,1,1,0,0,1,0-2,3,3,0,0,1,0,6Z"/><path d="M53,52a1,1,0,0,1,0-2,1,1,0,0,0,0-2,1,1,0,0,1,0-2,3,3,0,0,1,0,6Z"/><path d="M53,56H37a1,1,0,0,1-.707-.293l-2-2a1,1,0,0,1,1.414-1.414L37.414,54H53a1,1,0,0,0,0-2,1,1,0,0,1,0-2,3,3,0,0,1,0,6Z"/><path d="M35,56H29a1,1,0,0,1-1-1V53a1,1,0,0,1,2,0v1h4V39H30V50a1,1,0,0,1-2,0V38a1,1,0,0,1,1-1h6a1,1,0,0,1,1,1V55A1,1,0,0,1,35,56Z"/></svg>
