<svg width="122" height="28" viewBox="0 0 122 28" fill="none" xmlns="http://www.w3.org/2000/svg">
<path d="M10 6.29688V27H6.35938V6.29688H0.8125V2.875H15.5312V6.29688H10ZM17.0156 11.7812H20.5312V13.1406C21.1771 12.4635 21.75 12 22.25 11.75C22.7604 11.4896 23.3646 11.3594 24.0625 11.3594C24.9896 11.3594 25.9583 11.6615 26.9688 12.2656L25.3594 15.4844C24.6927 15.0052 24.0417 14.7656 23.4062 14.7656C21.4896 14.7656 20.5312 16.2135 20.5312 19.1094V27H17.0156V11.7812ZM39.9844 11.7812H43.5156V27H39.9844V25.4062C38.5365 26.7604 36.9792 27.4375 35.3125 27.4375C33.2083 27.4375 31.4688 26.6771 30.0938 25.1562C28.7292 23.6042 28.0469 21.6667 28.0469 19.3438C28.0469 17.0625 28.7292 15.1615 30.0938 13.6406C31.4583 12.1198 33.1667 11.3594 35.2188 11.3594C36.9896 11.3594 38.5781 12.0885 39.9844 13.5469V11.7812ZM31.6406 19.3438C31.6406 20.8021 32.0312 21.9896 32.8125 22.9062C33.6146 23.8333 34.625 24.2969 35.8438 24.2969C37.1458 24.2969 38.1979 23.849 39 22.9531C39.8021 22.026 40.2031 20.849 40.2031 19.4219C40.2031 17.9948 39.8021 16.8177 39 15.8906C38.1979 14.9844 37.1562 14.5312 35.875 14.5312C34.6667 14.5312 33.6562 14.9896 32.8438 15.9062C32.0417 16.8333 31.6406 17.9792 31.6406 19.3438ZM51.4688 11.7812V27H47.9531V11.7812H51.4688ZM47.4219 5.45312C47.4219 4.83854 47.6458 4.30729 48.0938 3.85938C48.5417 3.41146 49.0781 3.1875 49.7031 3.1875C50.3385 3.1875 50.8802 3.41146 51.3281 3.85938C51.776 4.29688 52 4.83333 52 5.46875C52 6.10417 51.776 6.64583 51.3281 7.09375C50.8906 7.54167 50.3542 7.76562 49.7188 7.76562C49.0833 7.76562 48.5417 7.54167 48.0938 7.09375C47.6458 6.64583 47.4219 6.09896 47.4219 5.45312ZM55.9219 11.7812H59.4531V13.1875C60.6823 11.9688 62.0677 11.3594 63.6094 11.3594C65.3802 11.3594 66.7604 11.9167 67.75 13.0312C68.6042 13.9792 69.0312 15.526 69.0312 17.6719V27H65.5V18.5C65.5 17 65.2917 15.9635 64.875 15.3906C64.4688 14.8073 63.7292 14.5156 62.6562 14.5156C61.4896 14.5156 60.6615 14.901 60.1719 15.6719C59.6927 16.4323 59.4531 17.7604 59.4531 19.6562V27H55.9219V11.7812ZM79.625 6.29688V27H75.9844V6.29688H70.4375V2.875H85.1562V6.29688H79.625ZM97.6094 11.7812H101.141V27H97.6094V25.4062C96.1615 26.7604 94.6042 27.4375 92.9375 27.4375C90.8333 27.4375 89.0938 26.6771 87.7188 25.1562C86.3542 23.6042 85.6719 21.6667 85.6719 19.3438C85.6719 17.0625 86.3542 15.1615 87.7188 13.6406C89.0833 12.1198 90.7917 11.3594 92.8438 11.3594C94.6146 11.3594 96.2031 12.0885 97.6094 13.5469V11.7812ZM89.2656 19.3438C89.2656 20.8021 89.6562 21.9896 90.4375 22.9062C91.2396 23.8333 92.25 24.2969 93.4688 24.2969C94.7708 24.2969 95.8229 23.849 96.625 22.9531C97.4271 22.026 97.8281 20.849 97.8281 19.4219C97.8281 17.9948 97.4271 16.8177 96.625 15.8906C95.8229 14.9844 94.7812 14.5312 93.5 14.5312C92.2917 14.5312 91.2812 14.9896 90.4688 15.9062C89.6667 16.8333 89.2656 17.9792 89.2656 19.3438ZM109.094 0.609375V13.5469C110.5 12.0885 112.094 11.3594 113.875 11.3594C115.927 11.3594 117.635 12.125 119 13.6562C120.365 15.1771 121.047 17.0729 121.047 19.3438C121.047 21.6875 120.359 23.625 118.984 25.1562C117.62 26.6771 115.896 27.4375 113.812 27.4375C112.052 27.4375 110.479 26.7604 109.094 25.4062V27H105.578V0.609375H109.094ZM117.453 19.5C117.453 18.0417 117.057 16.8542 116.266 15.9375C115.464 15 114.458 14.5312 113.25 14.5312C111.958 14.5312 110.906 14.9844 110.094 15.8906C109.292 16.7865 108.891 17.9531 108.891 19.3906C108.891 20.8698 109.286 22.0521 110.078 22.9375C110.87 23.8438 111.911 24.2969 113.203 24.2969C114.422 24.2969 115.432 23.8438 116.234 22.9375C117.047 22.0208 117.453 20.875 117.453 19.5Z" fill="#070707"/>
</svg>
