<svg width="24" height="24" viewBox="0 0 24 24" fill="none" xmlns="http://www.w3.org/2000/svg">
<path d="M11.9003 11.1608C12.6332 11.1608 13.3497 10.9434 13.9591 10.5362C14.5686 10.129 15.0435 9.55016 15.324 8.87297C15.6044 8.19579 15.6778 7.45065 15.5347 6.73179C15.3917 6.01292 15.0387 5.35262 14.5203 4.83439C14.002 4.31616 13.3416 3.96329 12.6228 3.82038C11.9039 3.67748 11.1587 3.75097 10.4816 4.03157C9.80448 4.31216 9.22577 4.78725 8.81867 5.39676C8.41157 6.00627 8.19436 6.72281 8.1945 7.45577C8.1957 8.43816 8.58653 9.37996 9.28125 10.0745C9.97598 10.7691 10.9179 11.1598 11.9003 11.1608ZM11.9003 5.25002C12.3365 5.25002 12.763 5.37938 13.1257 5.62176C13.4884 5.86413 13.7712 6.20862 13.9381 6.61167C14.105 7.01471 14.1487 7.45822 14.0636 7.88609C13.9785 8.31396 13.7684 8.70699 13.46 9.01547C13.1515 9.32395 12.7584 9.53403 12.3306 9.61914C11.9027 9.70425 11.4592 9.66056 11.0561 9.49362C10.6531 9.32667 10.3086 9.04395 10.0662 8.68122C9.82387 8.31848 9.6945 7.89203 9.6945 7.45577C9.6953 6.87101 9.92794 6.31043 10.3414 5.89694C10.7549 5.48346 11.3155 5.25081 11.9003 5.25002Z" fill="#1D1D1D"/>
<path d="M4.89975 13.3388C5.46343 13.3388 6.01445 13.1716 6.48313 12.8585C6.95181 12.5453 7.3171 12.1002 7.53281 11.5794C7.74852 11.0587 7.80496 10.4856 7.69499 9.93279C7.58502 9.37994 7.31359 8.87212 6.91501 8.47354C6.51643 8.07496 6.0086 7.80353 5.45576 7.69356C4.90291 7.58359 4.32987 7.64003 3.8091 7.85574C3.28833 8.07145 2.84322 8.43674 2.53006 8.90542C2.2169 9.3741 2.04975 9.92512 2.04975 10.4888C2.04975 11.2447 2.35002 11.9696 2.8845 12.5041C3.41898 13.0385 4.14388 13.3388 4.89975 13.3388ZM4.89975 9.1388C5.16676 9.1388 5.42776 9.21797 5.64977 9.36631C5.87178 9.51465 6.04481 9.72549 6.14699 9.97217C6.24917 10.2189 6.2759 10.4903 6.22381 10.7522C6.17172 11.014 6.04315 11.2546 5.85435 11.4434C5.66554 11.6322 5.425 11.7608 5.16312 11.8129C4.90125 11.8649 4.62981 11.8382 4.38313 11.736C4.13645 11.6339 3.92561 11.4608 3.77727 11.2388C3.62893 11.0168 3.54975 10.7558 3.54975 10.4888C3.54975 10.1308 3.69198 9.78738 3.94516 9.5342C4.19833 9.28103 4.54171 9.1388 4.89975 9.1388Z" fill="#1D1D1D"/>
<path d="M18.9 13.3388C19.4637 13.3388 20.0147 13.1716 20.4834 12.8585C20.9521 12.5453 21.3173 12.1002 21.5331 11.5794C21.7488 11.0587 21.8052 10.4856 21.6952 9.93279C21.5853 9.37994 21.3138 8.87212 20.9153 8.47354C20.5167 8.07496 20.0089 7.80353 19.456 7.69356C18.9032 7.58359 18.3301 7.64003 17.8094 7.85574C17.2886 8.07145 16.8435 8.43674 16.5303 8.90542C16.2171 9.3741 16.05 9.92512 16.05 10.4888C16.05 11.2447 16.3503 11.9696 16.8847 12.5041C17.4192 13.0385 18.1441 13.3388 18.9 13.3388ZM18.9 9.1388C19.167 9.1388 19.428 9.21797 19.65 9.36631C19.872 9.51465 20.0451 9.72549 20.1472 9.97217C20.2494 10.2189 20.2762 10.4903 20.2241 10.7522C20.172 11.014 20.0434 11.2546 19.8546 11.4434C19.6658 11.6322 19.4252 11.7608 19.1634 11.8129C18.9015 11.8649 18.6301 11.8382 18.3834 11.736C18.1367 11.6339 17.9259 11.4608 17.7775 11.2388C17.6292 11.0168 17.55 10.7558 17.55 10.4888C17.55 10.1308 17.6922 9.78738 17.9454 9.5342C18.1986 9.28103 18.542 9.1388 18.9 9.1388Z" fill="#1D1D1D"/>
<path d="M18.9997 14.8432C18.3423 14.8476 17.6962 15.0159 17.1202 15.333C16.5727 14.466 15.8179 13.749 14.924 13.2466C14.0301 12.7443 13.0252 12.4723 12 12.4552C10.9748 12.4723 9.96988 12.7443 9.076 13.2466C8.18212 13.749 7.42734 14.466 6.87975 15.333C6.30375 15.0159 5.65774 14.8476 5.00025 14.8432C3.82042 14.9008 2.71128 15.4228 1.91497 16.2952C1.11866 17.1677 0.699863 18.3198 0.749998 19.4999C0.749998 19.6989 0.829016 19.8896 0.969668 20.0303C1.11032 20.1709 1.30109 20.2499 1.5 20.2499C1.69891 20.2499 1.88968 20.1709 2.03033 20.0303C2.17098 19.8896 2.25 19.6989 2.25 19.4999C2.20084 18.7177 2.46199 17.9477 2.97683 17.3568C3.49167 16.7658 4.21869 16.4017 5.00025 16.3432C5.41471 16.3464 5.82161 16.4545 6.183 16.6574C5.82953 17.5482 5.64857 18.4981 5.64975 19.4564C5.64975 19.6554 5.72877 19.8461 5.86942 19.9868C6.01007 20.1274 6.20084 20.2064 6.39975 20.2064C6.59866 20.2064 6.78943 20.1274 6.93008 19.9868C7.07073 19.8461 7.14975 19.6554 7.14975 19.4564C7.14975 16.4227 9.32475 13.9552 12 13.9552C14.6752 13.9552 16.8502 16.4227 16.8502 19.4564C16.8502 19.6554 16.9293 19.8461 17.0699 19.9868C17.2106 20.1274 17.4013 20.2064 17.6002 20.2064C17.7992 20.2064 17.9899 20.1274 18.1306 19.9868C18.2712 19.8461 18.3502 19.6554 18.3502 19.4564C18.3514 18.4981 18.1705 17.5482 17.817 16.6574C18.1784 16.4545 18.5853 16.3464 18.9997 16.3432C19.7813 16.4017 20.5083 16.7658 21.0232 17.3568C21.538 17.9477 21.7992 18.7177 21.75 19.4999C21.75 19.6989 21.829 19.8896 21.9697 20.0303C22.1103 20.1709 22.3011 20.2499 22.5 20.2499C22.6989 20.2499 22.8897 20.1709 23.0303 20.0303C23.171 19.8896 23.25 19.6989 23.25 19.4999C23.3001 18.3198 22.8813 17.1677 22.085 16.2952C21.2887 15.4228 20.1796 14.9008 18.9997 14.8432Z" fill="#1D1D1D"/>
</svg>
