<svg width="24" height="24" viewBox="0 0 24 24" fill="none" xmlns="http://www.w3.org/2000/svg">
<path d="M19.3899 22H5.10989C4.41768 22 3.75381 21.725 3.26434 21.2355C2.77487 20.7461 2.49989 20.0822 2.49989 19.39V5.11C2.49989 4.41779 2.77487 3.75392 3.26434 3.26445C3.75381 2.77498 4.41768 2.5 5.10989 2.5H19.3899C20.0821 2.5 20.746 2.77498 21.2354 3.26445C21.7249 3.75392 21.9999 4.41779 21.9999 5.11V19.39C21.9999 20.0822 21.7249 20.7461 21.2354 21.2355C20.746 21.725 20.0821 22 19.3899 22ZM5.10989 4C4.8155 4 4.53317 4.11695 4.325 4.32511C4.11684 4.53328 3.99989 4.81561 3.99989 5.11V19.39C3.99989 19.6844 4.11684 19.9667 4.325 20.1749C4.53317 20.3831 4.8155 20.5 5.10989 20.5H19.3899C19.6843 20.5 19.9666 20.3831 20.1748 20.1749C20.3829 19.9667 20.4999 19.6844 20.4999 19.39V5.11C20.4999 4.81561 20.3829 4.53328 20.1748 4.32511C19.9666 4.11695 19.6843 4 19.3899 4H5.10989Z" fill="#1D1D1D"/>
<path d="M3.24984 19.06C3.14181 19.0596 3.03509 19.0363 2.9368 18.9914C2.83851 18.9466 2.75091 18.8813 2.67984 18.8C2.61587 18.7246 2.56744 18.6373 2.53733 18.5431C2.50721 18.449 2.49602 18.3498 2.50438 18.2513C2.51275 18.1527 2.54051 18.0569 2.58606 17.9691C2.63162 17.8814 2.69408 17.8035 2.76984 17.74L7.88984 13.42C8.27211 13.0973 8.76141 12.9297 9.26123 12.95C9.76104 12.9704 10.2351 13.1773 10.5898 13.53L13.0198 15.96C13.1104 16.0374 13.2257 16.08 13.3448 16.08C13.464 16.08 13.5793 16.0374 13.6698 15.96L16.0298 14.25C16.3796 13.9808 16.8085 13.8348 17.2498 13.8348C17.6912 13.8348 18.1201 13.9808 18.4698 14.25L21.7198 16.84C21.7973 16.9017 21.8619 16.9781 21.9098 17.0647C21.9578 17.1514 21.9882 17.2467 21.9994 17.3451C22.0105 17.4436 22.0022 17.5432 21.9748 17.6384C21.9474 17.7336 21.9016 17.8225 21.8398 17.9C21.7781 17.9775 21.7017 18.042 21.6151 18.09C21.5284 18.1379 21.4331 18.1684 21.3347 18.1795C21.2363 18.1907 21.1366 18.1823 21.0414 18.1549C20.9462 18.1276 20.8573 18.0817 20.7798 18.02L17.5398 15.42C17.4524 15.3527 17.3452 15.3162 17.2348 15.3162C17.1245 15.3162 17.0173 15.3527 16.9298 15.42L14.5698 17.25C14.1857 17.5384 13.7106 17.679 13.2313 17.6459C12.7521 17.6129 12.3007 17.4084 11.9598 17.07L9.52984 14.59C9.43796 14.5071 9.3186 14.4612 9.19484 14.4612C9.07108 14.4612 8.95172 14.5071 8.85984 14.59L3.72984 18.89C3.59589 19.0032 3.42521 19.0637 3.24984 19.06Z" fill="#1D1D1D"/>
<path d="M15.2499 12C14.706 12 14.1743 11.8387 13.7221 11.5365C13.2698 11.2344 12.9174 10.8049 12.7092 10.3024C12.5011 9.79988 12.4466 9.24695 12.5527 8.7135C12.6588 8.18006 12.9208 7.69005 13.3054 7.30546C13.6899 6.92086 14.1799 6.65895 14.7134 6.55284C15.2468 6.44673 15.7998 6.50119 16.3023 6.70933C16.8048 6.91747 17.2343 7.26995 17.5364 7.72218C17.8386 8.17442 17.9999 8.7061 17.9999 9.25C17.9999 9.97935 17.7102 10.6788 17.1944 11.1945C16.6787 11.7103 15.9792 12 15.2499 12ZM15.2499 8C15.0027 8 14.761 8.07331 14.5554 8.21066C14.3499 8.34802 14.1897 8.54324 14.095 8.77165C14.0004 9.00005 13.9757 9.25139 14.0239 9.49386C14.0721 9.73634 14.1912 9.95907 14.366 10.1339C14.5408 10.3087 14.7636 10.4278 15.006 10.476C15.2485 10.5242 15.4998 10.4995 15.7282 10.4048C15.9567 10.3102 16.1519 10.15 16.2892 9.94446C16.4266 9.7389 16.4999 9.49723 16.4999 9.25C16.4999 8.91848 16.3682 8.60054 16.1338 8.36612C15.8994 8.1317 15.5814 8 15.2499 8Z" fill="#1D1D1D"/>
</svg>
