<svg width="24" height="24" viewBox="0 0 24 24" fill="none" xmlns="http://www.w3.org/2000/svg">
<path d="M19.4128 21H14.2301C13.3551 21 12.6429 20.2878 12.6429 19.4128V12.9444C12.6429 12.0695 13.3551 11.3572 14.2301 11.3572H19.4128C20.2877 11.3572 21 12.0695 21 12.9444V19.4128C21 20.2878 20.2877 21 19.4128 21ZM14.2301 12.6429C14.0636 12.6429 13.9286 12.7779 13.9286 12.9444V19.4128C13.9286 19.5793 14.0636 19.7143 14.2301 19.7143H19.4128C19.5793 19.7143 19.7143 19.5793 19.7143 19.4128V12.9444C19.7143 12.7779 19.5793 12.6429 19.4128 12.6429H14.2301Z" fill="#1D1D1D" stroke="#1D1D1D" stroke-width="0.1"/>
<path d="M19.4128 10.0714H14.2301C13.3551 10.0714 12.6429 9.35914 12.6429 8.48421V4.58721C12.6429 3.71229 13.3551 3 14.2301 3H19.4128C20.2877 3 21 3.71229 21 4.58721V8.48421C21 9.35914 20.2877 10.0714 19.4128 10.0714ZM14.2301 4.28571C14.0636 4.28571 13.9286 4.42071 13.9286 4.58721V8.48421C13.9286 8.65071 14.0636 8.78571 14.2301 8.78571H19.4128C19.5793 8.78571 19.7143 8.65071 19.7143 8.48421V4.58721C19.7143 4.42071 19.5793 4.28571 19.4128 4.28571H14.2301Z" fill="#1D1D1D" stroke="#1D1D1D" stroke-width="0.1"/>
<path d="M9.76993 12.6429H4.58721C3.71229 12.6429 3 11.9306 3 11.0556V4.58721C3 3.71229 3.71229 3 4.58721 3H9.76993C10.6449 3 11.3571 3.71229 11.3571 4.58721V11.0556C11.3571 11.9306 10.6449 12.6429 9.76993 12.6429ZM4.58721 4.28571C4.42071 4.28571 4.28571 4.42071 4.28571 4.58721V11.0556C4.28571 11.2221 4.42071 11.3571 4.58721 11.3571H9.76993C9.93643 11.3571 10.0714 11.2221 10.0714 11.0556V4.58721C10.0714 4.42071 9.93643 4.28571 9.76993 4.28571H4.58721Z" fill="#1D1D1D" stroke="#1D1D1D" stroke-width="0.1"/>
<path d="M9.76993 21H4.58721C3.71229 21 3 20.2877 3 19.4128V15.5158C3 14.6409 3.71229 13.9286 4.58721 13.9286H9.76993C10.6449 13.9286 11.3571 14.6409 11.3571 15.5158V19.4128C11.3571 20.2877 10.6449 21 9.76993 21ZM4.58721 15.2143C4.42071 15.2143 4.28571 15.3493 4.28571 15.5158V19.4128C4.28571 19.5793 4.42071 19.7143 4.58721 19.7143H9.76993C9.93643 19.7143 10.0714 19.5793 10.0714 19.4128V15.5158C10.0714 15.3493 9.93643 15.2143 9.76993 15.2143H4.58721Z" fill="#1D1D1D" stroke="#1D1D1D" stroke-width="0.1"/>
</svg>
