<svg width="202" height="48" viewBox="0 0 202 48" fill="none" xmlns="http://www.w3.org/2000/svg">
<path d="M19.712 12.664L19.072 16.184H13.152L9.824 35H5.312L8.64 16.184H2.688L3.328 12.664H19.712ZM31.3648 12.664C33.6474 12.664 35.3754 13.1867 36.5487 14.232C37.7221 15.256 38.3088 16.6 38.3088 18.264C38.3088 18.6693 38.2768 19.0853 38.2128 19.512C37.9568 20.9627 37.2954 22.2853 36.2288 23.48C35.1834 24.6533 33.7754 25.4747 32.0048 25.944L35.7488 35H30.5328L27.2048 26.296H25.0608L23.5248 35H19.0128L22.9808 12.664H31.3648ZM33.6048 19.608C33.6474 19.224 33.6688 18.968 33.6688 18.84C33.6688 18.0293 33.4128 17.4 32.9008 16.952C32.3888 16.504 31.6101 16.28 30.5648 16.28H26.8208L25.6368 22.968H29.3808C30.5754 22.968 31.5248 22.6693 32.2288 22.072C32.9541 21.4747 33.4128 20.6533 33.6048 19.608ZM53.9768 30.744H45.0488L42.8408 35H38.1367L50.1368 12.632H55.3528L59.4168 35H54.6808L53.9768 30.744ZM53.4008 27.256L51.8008 17.784L46.8728 27.256H53.4008ZM70.867 12.664L66.931 35H62.419L66.387 12.664H70.867ZM90.4613 35H85.9493L78.5573 19.672L75.8373 35H71.3253L75.2933 12.632H79.7733L87.1973 27.992L89.9173 12.632H94.3973L90.4613 35ZM122.587 12.664L121.947 16.184H116.027L112.699 35H108.187L111.515 16.184H105.563L106.203 12.664H122.587ZM136.352 30.744H127.424L125.216 35H120.512L132.512 12.632H137.728L141.792 35H137.056L136.352 30.744ZM135.776 27.256L134.176 17.784L129.248 27.256H135.776ZM164.218 18.424C164.005 19.7253 163.471 20.8133 162.618 21.688C161.786 22.5413 160.762 23.16 159.546 23.544C160.57 23.7573 161.391 24.2693 162.01 25.08C162.65 25.8907 162.97 26.8507 162.97 27.96C162.97 28.2587 162.938 28.5893 162.874 28.952C162.575 30.7653 161.658 32.2267 160.122 33.336C158.607 34.4453 156.709 35 154.426 35H144.794L148.762 12.664H157.978C160.005 12.664 161.562 13.0907 162.65 13.944C163.759 14.7973 164.314 15.9387 164.314 17.368C164.314 17.7093 164.282 18.0613 164.218 18.424ZM159.546 19.096C159.567 18.968 159.578 18.776 159.578 18.52C159.578 17.7733 159.333 17.1973 158.842 16.792C158.351 16.3867 157.637 16.184 156.698 16.184H152.634L151.61 21.944H155.706C156.751 21.944 157.615 21.6987 158.298 21.208C158.981 20.696 159.397 19.992 159.546 19.096ZM158.426 28.408C158.469 28.1093 158.49 27.896 158.49 27.768C158.49 27 158.213 26.4027 157.658 25.976C157.125 25.528 156.378 25.304 155.418 25.304H151.002L149.946 31.448H154.458C155.546 31.448 156.442 31.1813 157.146 30.648C157.85 30.1147 158.277 29.368 158.426 28.408Z" fill="white"/>
<path fill-rule="evenodd" clip-rule="evenodd" d="M185.498 22.4977L193.747 14.2487L185.498 5.99976H169L177.249 14.2487L185.498 22.4977L193.747 30.7454L202 22.4977L193.747 14.2487L185.498 22.4977Z" fill="#4B32D4"/>
<path fill-rule="evenodd" clip-rule="evenodd" d="M185.498 22.4976L193.747 30.7453L185.498 38.9956H169L177.249 30.7453L185.498 22.4976Z" fill="#39FF14"/>
<path fill-rule="evenodd" clip-rule="evenodd" d="M193.747 14.2487L185.498 22.4977L193.747 30.7454L202 22.4977L193.747 14.2487Z" fill="#28E804"/>
</svg>
