<svg id="Layer_1" enable-background="new 0 0 60 60" height="512" viewBox="0 0 60 60" width="512" xmlns="http://www.w3.org/2000/svg"><path d="m29.5373535 54.8865967c.1445313.0756836.3037109.1132813.4624023.1132813s.3178711-.0375977.4624023-.1132813c11.7358398-6.1230469 19.0258789-18.1494141 19.0258789-31.3857422v-9.4628906c0-.3979492-.2363281-.7583008-.6010742-.9169922l-18.4882812-8.038086c-.2548828-.1103516-.5429688-.1103516-.7978516 0l-18.487793 8.0380859c-.3647461.1586914-.6010742.519043-.6010742.9169922v9.4628906c.0000001 13.2363282 7.2900392 25.2626954 19.0253907 31.3857423zm-17.0253906-40.1928711 17.487793-7.6035156 17.4882813 7.6035156v8.8071289c0 12.3139648-6.6865234 23.5175781-17.4882813 29.3666992-10.8012695-5.8491211-17.487793-17.0527344-17.487793-29.3666992z"/><path d="m26.0183105 40.4769287c.2651367 0 .5195313-.1054688.7070313-.2929688l15.3984375-15.3989258c.390625-.390625.390625-1.0234375 0-1.4140625l-3.5556641-3.5556641c-.390625-.390625-1.0234375-.390625-1.4140625 0l-11.1357422 11.1347657-3.1723633-3.171875c-.390625-.390625-1.0234375-.390625-1.4140625 0l-3.5556641 3.5556641c-.390625.390625-.390625 1.0234375 0 1.4140625l7.4350586 7.4360352c.1875001.1875.4418946.2929687.7070313.2929687zm-3.8793945-10.5776367 3.1723633 3.171875c.390625.390625 1.0234375.390625 1.4140625 0l11.1357422-11.1347656 2.1416016 2.1416016-13.984375 13.9848633-6.0209961-6.0219727z"/></svg>