<svg width="122" height="17" viewBox="0 0 122 17" fill="none" xmlns="http://www.w3.org/2000/svg">
<path d="M13.284 0.248L12.804 2.888H8.364L5.868 17H2.484L4.98 2.888H0.516L0.996 0.248H13.284ZM22.0236 0.248C23.7356 0.248 25.0316 0.639999 25.9116 1.424C26.7916 2.192 27.2316 3.2 27.2316 4.448C27.2316 4.752 27.2076 5.064 27.1596 5.384C26.9676 6.472 26.4716 7.464 25.6716 8.36C24.8876 9.24 23.8316 9.856 22.5036 10.208L25.3116 17H21.3996L18.9036 10.472H17.2956L16.1436 17H12.7596L15.7356 0.248H22.0236ZM23.7036 5.456C23.7356 5.168 23.7516 4.976 23.7516 4.88C23.7516 4.272 23.5596 3.8 23.1756 3.464C22.7916 3.128 22.2076 2.96 21.4236 2.96H18.6156L17.7276 7.976H20.5356C21.4316 7.976 22.1436 7.752 22.6716 7.304C23.2156 6.856 23.5596 6.24 23.7036 5.456ZM38.9826 13.808H32.2866L30.6306 17H27.1026L36.1026 0.223999H40.0146L43.0626 17H39.5106L38.9826 13.808ZM38.5506 11.192L37.3506 4.088L33.6546 11.192H38.5506ZM51.6503 0.248L48.6983 17H45.3143L48.2903 0.248H51.6503ZM66.3459 17H62.9619L57.4179 5.504L55.3779 17H51.9939L54.9699 0.223999H58.3299L63.8979 11.744L65.9379 0.223999H69.2979L66.3459 17ZM90.4403 0.248L89.9603 2.888H85.5203L83.0243 17H79.6403L82.1363 2.888H77.6723L78.1523 0.248H90.4403ZM100.764 13.808H94.0678L92.4118 17H88.8838L97.8838 0.223999H101.796L104.844 17H101.292L100.764 13.808ZM100.332 11.192L99.1318 4.088L95.4358 11.192H100.332ZM121.664 4.568C121.504 5.544 121.104 6.36 120.464 7.016C119.84 7.656 119.072 8.12 118.16 8.408C118.928 8.568 119.544 8.952 120.008 9.56C120.488 10.168 120.728 10.888 120.728 11.72C120.728 11.944 120.704 12.192 120.656 12.464C120.432 13.824 119.744 14.92 118.592 15.752C117.456 16.584 116.032 17 114.32 17H107.096L110.072 0.248H116.984C118.504 0.248 119.672 0.567999 120.488 1.208C121.32 1.848 121.736 2.704 121.736 3.776C121.736 4.032 121.712 4.296 121.664 4.568ZM118.16 5.072C118.176 4.976 118.184 4.832 118.184 4.64C118.184 4.08 118 3.648 117.632 3.344C117.264 3.04 116.728 2.888 116.024 2.888H112.976L112.208 7.208H115.28C116.064 7.208 116.712 7.024 117.224 6.656C117.736 6.272 118.048 5.744 118.16 5.072ZM117.32 12.056C117.352 11.832 117.368 11.672 117.368 11.576C117.368 11 117.16 10.552 116.744 10.232C116.344 9.896 115.784 9.728 115.064 9.728H111.752L110.96 14.336H114.344C115.16 14.336 115.832 14.136 116.36 13.736C116.888 13.336 117.208 12.776 117.32 12.056Z" fill="#070707"/>
</svg>
